#!OML:ASF F:\VICON\USERDATA\INSTALL\rory3\rory3.ASF
:FULLY-SPECIFIED
:DEGREES
2780
root -2.36189 17.3798 3.44822 4.16944 2.57797 1.93651
lowerback 7.70529 -1.12226 4.44369
upperback -0.749362 -1.03298 0.844739
thorax -5.17441 -0.622343 -1.49221
lowerneck -24.9714 -13.5071 -13.3747
upperneck 2.68547 -15.611 15.3985
head 7.03755 -6.56081 4.91293
rclavicle 1.38155e-014 -2.14687e-014
rhumerus 62.1503 -44.4817 -38.1128
rradius 28.9549
rwrist 19.9087
rhand -58.7422 -17.6787
rfingers 7.12502
rthumb -30.9536 -45.0891
lclavicle 1.38155e-014 -2.14687e-014
lhumerus -45.7592 7.66364 66.7553
lradius 43.5805
lwrist -8.84351
lhand -17.0104 22.6109
lfingers 7.12502
lthumb 9.22534 412.389
rfemur -19.7793 -6.18206 15.7287
rtibia 43.2144
rfoot -22.1033 0.375856
rtoes -0.381679
lfemur -6.02004 -3.19171 -7.46564
ltibia 19.7507
lfoot -9.11376 15.9388
ltoes -20.2676
2781
root -2.357 17.3786 3.45203 4.16683 2.5307 1.9156
lowerback 7.6992 -1.10871 4.46976
upperback -0.739015 -1.00493 1.0038
thorax -5.15606 -0.606367 -1.34478
lowerneck -25.0802 -13.5089 -13.4551
upperneck 2.81819 -15.5811 15.337
head 7.09132 -6.54403 4.90529
rclavicle 1.05356e-014 1.35174e-014
rhumerus 62.4004 -44.5321 -38.6535
rradius 28.9849
rwrist 17.753
rhand -59.1045 -16.9303
rfingers 7.12502
rthumb -31.2989 -44.2744
lclavicle 1.05356e-014 1.35174e-014
lhumerus -45.9128 7.70515 66.7991
lradius 43.6051
lwrist -8.82912
lhand -17.0628 22.0449
lfingers 7.12502
lthumb 9.17475 411.825
rfemur -19.7731 -6.05681 15.7304
rtibia 43.2237
rfoot -22.1403 0.308703
rtoes -0.215225
lfemur -5.96358 -3.16154 -7.44609
ltibia 19.6842
lfoot -9.17306 15.9139
ltoes -20.0002
2782
root -2.35109 17.3801 3.45751 4.15997 2.49389 1.95132
lowerback 7.6267 -1.09671 4.49541
upperback -0.673897 -0.98772 1.10669
thorax -5.0444 -0.594206 -1.25616
lowerneck -25.0878 -13.525 -13.5272
upperneck 2.76947 -15.5755 15.3534
head 7.0824 -6.54205 4.92273
rclavicle 1.25234e-014 -2.14687e-014
rhumerus 62.5454 -44.6785 -39.1508
rradius 29.0459
rwrist 16.0259
rhand -59.4342 -16.3903
rfingers 7.12502
rthumb -31.6131 -43.6731
lclavicle 1.25234e-014 -2.14687e-014
lhumerus -45.9282 7.83732 66.7607
lradius 43.5247
lwrist -8.89764
lhand -17.071 21.7996
lfingers 7.12502
lthumb 9.16684 411.58
rfemur -19.7486 -6.04258 15.6639
rtibia 43.2214
rfoot -22.1084 0.320159
rtoes -0.0990624
lfemur -5.89549 -3.15566 -7.50952
ltibia 19.6188
lfoot -9.25847 15.9067
ltoes -20.0093
2783
root -2.34332 17.3829 3.4605 4.1216 2.49677 1.98612
lowerback 7.64552 -1.09886 4.56233
upperback -0.643034 -0.980182 1.18761
thorax -5.0222 -0.590275 -1.21041
lowerneck -24.9653 -13.5343 -13.6741
upperneck 2.72441 -15.5603 15.3965
head 7.06313 -6.54059 4.96565
rclavicle 7.7526e-015 5.56597e-015
rhumerus 62.7585 -44.8957 -39.8719
rradius 29.11
rwrist 15.058
rhand -59.4316 -15.6124
rfingers 7.12502
rthumb -31.6106 -42.8957
lclavicle 7.7526e-015 5.56597e-015
lhumerus -46.0151 7.87413 66.7436
lradius 43.5143
lwrist -8.85382
lhand -16.8955 22.3513
lfingers 7.12502
lthumb 9.33615 412.125
rfemur -19.6698 -6.0056 15.5716
rtibia 43.2037
rfoot -22.1109 0.4197
rtoes 0.303099
lfemur -5.8189 -3.05953 -7.58463
ltibia 19.5679
lfoot -9.21807 15.8359
ltoes -20.2792
2784
root -2.33459 17.3858 3.46043 4.06643 2.53686 2.03862
lowerback 7.75501 -1.10844 4.58441
upperback -0.652711 -0.979615 1.27061
thorax -5.09327 -0.590716 -1.13443
lowerneck -24.9952 -13.5252 -13.6291
upperneck 2.9271 -15.5458 15.1448
head 7.09996 -6.54693 4.87599
rclavicle -5.26779e-015 4.69132e-014
rhumerus 62.3762 -44.9329 -39.8217
rradius 29.2607
rwrist 13.5805
rhand -59.4023 -15.2175
rfingers 7.12502
rthumb -31.5827 -42.5062
lclavicle -5.26779e-015 4.69132e-014
lhumerus -46.1439 7.86036 66.7498
lradius 43.5448
lwrist -8.96135
lhand -16.6289 22.6578
lfingers 7.12502
lthumb 9.5934 412.419
rfemur -19.5852 -5.90998 15.4562
rtibia 43.1892
rfoot -22.1771 0.45453
rtoes 1.25563
lfemur -5.73476 -2.93117 -7.66731
ltibia 19.5085
lfoot -9.21592 15.6573
ltoes -20.1635
